HIERARCHY
ROOT Hips
{
	OFFSET	0.00	0.00	0.00
	CHANNELS 6 Xposition Yposition Zposition Zrotation Xrotation Yrotation
	JOINT LeftUpLeg
	{
		OFFSET	 0.126116	-0.014019	-0.065224
		CHANNELS 3 Zrotation Xrotation Yrotation
		JOINT LeftLeg
		{
			OFFSET	 0.000000	 0.000000	 0.569914
			CHANNELS 3 Zrotation Xrotation Yrotation
			JOINT LeftFoot
			{
				OFFSET	 0.000000	 0.000000	 0.544423
				CHANNELS 3 Zrotation Xrotation Yrotation
				JOINT LeftToeBase
				{
					OFFSET	 0.000000	 0.000000	 0.207117
					CHANNELS 3 Zrotation Xrotation Yrotation
					End Site
					{
						OFFSET	 0.000000	 0.000000	 0.207117
					}
				}
			}
		}
	}
	JOINT RightUpLeg
	{
		OFFSET	-0.124023	-0.008373	-0.065224
		CHANNELS 3 Zrotation Xrotation Yrotation
		JOINT RightLeg
		{
			OFFSET	 0.000000	 0.000000	 0.570047
			CHANNELS 3 Zrotation Xrotation Yrotation
			JOINT RightFoot
			{
				OFFSET	 0.000000	 0.000000	 0.544354
				CHANNELS 3 Zrotation Xrotation Yrotation
				JOINT RightToeBase
				{
					OFFSET	 0.000000	 0.000000	 0.207540
					CHANNELS 3 Zrotation Xrotation Yrotation
					End Site
					{
						OFFSET	 0.000000	 0.000000	 0.207540
					}
				}
			}
		}
	}
	JOINT Spine
	{
		OFFSET	 0.000184	-0.007763	 0.117403
		CHANNELS 3 Zrotation Xrotation Yrotation
		JOINT Spine1
		{
			OFFSET	 0.000000	 0.000000	 0.137269
			CHANNELS 3 Zrotation Xrotation Yrotation
			JOINT Spine2
			{
				OFFSET	 0.000000	 0.000000	 0.156879
				CHANNELS 3 Zrotation Xrotation Yrotation
				JOINT LeftShoulder
				{
					OFFSET	 0.080501	-0.002496	 0.160144
					CHANNELS 3 Zrotation Xrotation Yrotation
					JOINT LeftArm
					{
						OFFSET	 0.000000	 0.000000	 0.164363
						CHANNELS 3 Zrotation Xrotation Yrotation
						JOINT LeftForeArm
						{
							OFFSET	 0.000000	 0.000000	 0.364576
							CHANNELS 3 Zrotation Xrotation Yrotation
							JOINT LeftHand
							{
								OFFSET	 0.000000	 0.000000	 0.360812
								CHANNELS 3 Zrotation Xrotation Yrotation
								JOINT LeftHandIndex1
								{
									OFFSET	 0.000000	 0.000000	 0.086006
									CHANNELS 3 Zrotation Xrotation Yrotation
									JOINT LeftHandIndex2
									{
										OFFSET	 0.000000	 0.000000	 0.047236
										CHANNELS 3 Zrotation Xrotation Yrotation
										JOINT LeftHandIndex3
										{
											OFFSET	-0.004284	-0.000551	 0.038166
											CHANNELS 3 Zrotation Xrotation Yrotation
											End Site
											{
												OFFSET	-0.004284	-0.000551	 0.038166
											}
										}
									}
								}
							}
						}
					}
				}
				JOINT Neck
				{
					OFFSET	 0.000000	 0.000000	 0.176489
					CHANNELS 3 Zrotation Xrotation Yrotation
					JOINT Head
					{
						OFFSET	 0.000000	-0.001747	 0.077940
						CHANNELS 3 Zrotation Xrotation Yrotation
						End Site
						{
							OFFSET	 0.000000	-0.001747	 0.077940
						}
					}
				}
				JOINT RightShoulder
				{
					OFFSET	-0.080363	 0.000306	 0.159706
					CHANNELS 3 Zrotation Xrotation Yrotation
					JOINT RightArm
					{
						OFFSET	 0.000000	 0.000000	 0.164196
						CHANNELS 3 Zrotation Xrotation Yrotation
						JOINT RightForeArm
						{
							OFFSET	 0.000000	 0.000000	 0.365611
							CHANNELS 3 Zrotation Xrotation Yrotation
							JOINT RightHand
							{
								OFFSET	 0.000000	 0.000000	 0.360648
								CHANNELS 3 Zrotation Xrotation Yrotation
								JOINT RightHandIndex1
								{
									OFFSET	 0.000000	 0.000000	 0.069977
									CHANNELS 3 Zrotation Xrotation Yrotation
									JOINT RightHandIndex2
									{
										OFFSET	 0.000000	 0.000000	 0.052305
										CHANNELS 3 Zrotation Xrotation Yrotation
										JOINT RightHandIndex3
										{
											OFFSET	 0.009002	-0.000782	 0.042196
											CHANNELS 3 Zrotation Xrotation Yrotation
											End Site
											{
												OFFSET	 0.009002	-0.000782	 0.042196
											}
										}
									}
								}
							}
						}
					}
				}
			}
		}
	}
}
MOTION
Frames:    8
Frame Time: 0.03333334
-0.054959	-2.212996	 1.157312	 3.870971	-1.670933	-2.762032	 1.057667	-18.917070	-171.278400	 0.154588	-51.298160	-0.151920	 90.368880	 82.651020	-94.385330	-2.371608	 31.239790	-0.061457	-1.454991	-33.697260	-175.271400	 13.180520	-62.335860	 12.408970	 15.756640	 73.367880	-11.432820	 2.357725	 33.180930	 0.107437	-5.686543	 8.953942	 2.259033	-2.064812	 1.951425	-1.591180	 3.396805	-1.504255	 1.639598	-93.742600	 58.837280	 175.820500	 22.006770	 42.873270	-22.750240	-0.515686	-2.424475	-19.456020	 0.708389	-3.951380	-5.657373	-4.869340	 19.249680	-2.788391	-3.891319	 21.347370	 2.212701	-4.807528	 5.554153	 0.146462	-0.133362	-5.006335	 0.154754	 1.095281	 2.243317	 2.950267	 89.841440	 61.560790	-179.859000	-20.596070	 51.791580	 15.050980	-1.425514	-1.222054	 6.352789	-5.005072	 9.916561	 0.810859	 6.305990	 26.123540	-0.579058	 1.710867	 46.073990	-6.836843	 0.323918	 25.156790	 3.672100
-0.055801	-2.226748	 1.157632	 4.942223	-1.127843	-2.727214	 0.027133	-18.790450	-171.403600	 1.078466	-51.091720	 0.564754	 90.009490	 82.665570	-94.598800	-2.369710	 31.563230	-0.068759	-3.858084	-35.346010	-175.302300	 14.042750	-60.610940	 12.964760	 35.015870	 80.516930	-31.953370	 2.358797	 33.024860	 0.103801	-6.477713	 8.638375	 2.069391	-2.047525	 1.636129	-1.514194	 3.251300	-1.752848	 1.644243	-93.939540	 59.001990	 175.380900	 22.866630	 41.815760	-23.489320	-1.616939	-2.112446	-20.179010	 1.290898	-4.245549	-7.382348	-4.869050	 19.248630	-2.786521	-3.883930	 21.442070	 2.205194	-4.808270	 5.545386	 0.146975	-0.075037	-5.076151	 0.184576	 1.136809	 2.014743	 2.742176	 89.778570	 61.650000	 179.991600	-19.902300	 52.288080	 14.133350	-1.833169	-1.032879	 5.209626	-4.951862	 10.560160	 0.576924	 6.293520	 24.823180	-0.539455	 1.892368	 44.645100	-6.999233	 0.542420	 24.205320	 3.560097
-0.056646	-2.244081	 1.157646	 5.883716	-0.299094	-2.770892	-0.884748	-18.725300	-171.494700	 1.553512	-50.824340	 0.930922	 90.191170	 82.771680	-95.026090	-2.368114	 31.826760	-0.074735	-6.366321	-37.551480	-175.451600	 14.993360	-58.219130	 13.482990	 86.762050	 83.155440	-85.298230	 2.359056	 32.988460	 0.102950	-7.041234	 8.116472	 1.816392	-2.048713	 1.183635	-1.309072	 3.046342	-1.774220	 1.580360	-94.165570	 59.020000	 174.896200	 23.136870	 40.466020	-23.867900	-2.027167	-2.105969	-21.545720	 2.063016	-4.685006	-8.252197	-4.862392	 19.429010	-2.800485	-3.871325	 21.603120	 2.192390	-4.803180	 5.605380	 0.143465	-0.027241	-5.113499	 0.248064	 1.090238	 1.944415	 2.619000	 89.693650	 61.753080	 179.788300	-19.204080	 52.777370	 13.225330	-2.516397	-0.850380	 4.039898	-5.238189	 11.179270	 0.257838	 6.271231	 23.193350	-0.556699	 2.082024	 43.061170	-7.167478	 0.874787	 22.726400	 3.395479
-0.057018	-2.266179	 1.156994	 6.399431	 0.532753	-3.134416	-1.260969	-18.225550	-171.273800	 1.854650	-50.325850	 1.156127	 95.172360	 82.831660	-100.189700	-2.365551	 32.239500	-0.084136	-7.242769	-39.932020	-175.124200	 15.449590	-55.124070	 13.412420	 109.965000	 80.330350	-110.368100	 2.361368	 32.641540	 0.094931	-7.250309	 7.428443	 1.859096	-2.005073	 1.141551	-1.041837	 2.840119	-1.884155	 1.451819	-94.369570	 58.946840	 174.472500	 22.956620	 38.800780	-24.255530	-2.863529	-1.940830	-23.372400	 2.089102	-5.420107	-7.806269	-4.846300	 19.806790	-2.818851	-3.851066	 21.860490	 2.171809	-4.790794	 5.751151	 0.134912	-0.005235	-5.183157	 0.314397	 0.952504	 1.893020	 2.599778	 89.558150	 61.919820	 179.460700	-18.334510	 53.322280	 12.052720	-3.761219	-0.753015	 3.229352	-5.733905	 11.920560	-0.691449	 6.237619	 21.212000	-0.621214	 2.257624	 41.505370	-7.321796	 1.307091	 20.746240	 3.192204
-0.057395	-2.288278	 1.155699	 6.548376	 0.899438	-3.443166	-1.390294	-17.197440	-171.106400	 1.983179	-49.850220	 1.246399	 97.428750	 82.879000	-102.518200	-2.359854	 33.105380	-0.104114	-6.228148	-41.407810	-174.425300	 14.591110	-52.122770	 12.224880	 128.836100	 74.801540	-130.112700	 2.354217	 33.680910	 0.119135	-7.348087	 6.938375	 1.983348	-1.932870	 1.648452	-0.829960	 2.712337	-2.132219	 1.343068	-94.463750	 58.880170	 174.282700	 22.156070	 37.458370	-24.590770	-3.456259	-1.807952	-24.900950	 1.770891	-5.605432	-7.336349	-4.828856	 20.156190	-2.822342	-3.827970	 22.151950	 2.148341	-4.773404	 5.955303	 0.122872	 0.018652	-5.263320	 0.339090	 0.848960	 1.822652	 2.563761	 89.462960	 62.014900	 179.228700	-17.372870	 53.797630	 10.341950	-5.003860	-0.934898	 3.648120	-5.989508	 12.323030	-1.934841	 6.202513	 19.376410	-0.695463	 2.490866	 39.295420	-7.524359	 1.702785	 18.878960	 3.017400
-0.058418	-2.320842	 1.152943	 6.821346	 1.026250	-3.758310	-1.744774	-15.302030	-171.028900	 2.252774	-49.214770	 1.438880	 95.500910	 83.052450	-100.711000	-2.342764	 35.392010	-0.158337	-5.110198	-42.726560	-173.520100	 14.120260	-47.463030	 11.076050	 127.808200	 71.634530	-130.255400	 2.338607	 35.689340	 0.167246	-7.695332	 6.841508	 2.117915	-1.832554	 2.061537	-0.543987	 2.549939	-2.549447	 1.187441	-94.534580	 58.890930	 174.130400	 20.574460	 36.042490	-25.058330	-3.681116	-1.823121	-26.423320	 1.428967	-6.400885	-7.440207	-4.838912	 20.448570	-2.967009	-3.796635	 22.543730	 2.116522	-4.742120	 6.321246	 0.101126	 0.086432	-5.370580	 0.353375	 0.756932	 1.782830	 2.337328	 89.374340	 61.990910	 179.015500	-15.949160	 54.350320	 7.112034	-6.412631	-1.503536	 5.310607	-5.954129	 12.272970	-3.477044	 6.169241	 16.944140	-0.703458	 2.796397	 36.127520	-7.784942	 2.208651	 16.418200	 2.810434
-0.060818	-2.354116	 1.149335	 7.058708	 0.986214	-3.642776	-2.358352	-13.284850	-171.458600	 2.782049	-48.763050	 1.827303	 82.255870	 83.300690	-87.631190	-2.304151	 39.454990	-0.261104	-4.538343	-43.431930	-173.322600	 12.985810	-42.890250	 9.450910	 110.940200	 74.778310	-113.460100	 2.337585	 35.810860	 0.170216	-8.154795	 6.833199	 1.987775	-1.709379	 2.604384	-0.412039	 2.379327	-2.945682	 1.059774	-94.528590	 59.111240	 174.106600	 18.891500	 35.113200	-25.922480	-3.736482	-1.840831	-26.997020	 0.963407	-7.503541	-7.980841	-4.866987	 20.568760	-3.165874	-3.772518	 22.842460	 2.092034	-4.703871	 6.765895	 0.074411	 0.156176	-5.455505	 0.301897	 0.719144	 1.817381	 2.146845	 89.356730	 61.758390	 178.981900	-14.831310	 54.553340	 4.052266	-7.430466	-2.147748	 7.084248	-5.882892	 11.860870	-4.602324	 6.178466	 14.802440	-0.519436	 2.969355	 34.183650	-7.929694	 2.629440	 14.311570	 2.653099
-0.064967	-2.393541	 1.144289	 7.302907	 0.719362	-2.991764	-2.894232	-10.621720	-172.617400	 2.491785	-48.366610	 1.599086	 55.681950	 82.606860	-60.439480	-2.204934	 46.541240	-0.467315	-3.440125	-43.855300	-173.494700	 9.249652	-38.715740	 6.298262	 68.613010	 78.422490	-68.170110	 2.340166	 35.502890	 0.162694	-8.692572	 6.875725	 1.330800	-1.571072	 3.531158	-0.158052	 2.147997	-3.332946	 0.795889	-94.474460	 59.318080	 174.188000	 17.144020	 34.213720	-27.223050	-3.918617	-1.750527	-27.035300	 0.461433	-8.086535	-8.239983	-4.888419	 20.679610	-3.325644	-3.757266	 23.030220	 2.076544	-4.652653	 7.357021	 0.038387	 0.234958	-5.477573	 0.253121	 0.682151	 1.964405	 2.213072	 89.354420	 61.496930	 178.985900	-13.898600	 54.485580	 1.680405	-8.374887	-2.527070	 7.854035	-6.060206	 11.331170	-5.374097	 6.243762	 12.640550	-0.111412	 3.096545	 32.679390	-8.034708	 3.013387	 12.345170	 2.521815
